G04 #@! TF.GenerationSoftware,KiCad,Pcbnew,5.0.2-bee76a0~70~ubuntu18.04.1*
G04 #@! TF.CreationDate,2020-01-29T09:52:59-03:00*
G04 #@! TF.ProjectId,conector,636f6e65-6374-46f7-922e-6b696361645f,rev?*
G04 #@! TF.SameCoordinates,Original*
G04 #@! TF.FileFunction,Copper,L1,Top*
G04 #@! TF.FilePolarity,Positive*
%FSLAX46Y46*%
G04 Gerber Fmt 4.6, Leading zero omitted, Abs format (unit mm)*
G04 Created by KiCad (PCBNEW 5.0.2-bee76a0~70~ubuntu18.04.1) date qua 29 jan 2020 09:52:59 -03*
%MOMM*%
%LPD*%
G01*
G04 APERTURE LIST*
G04 #@! TA.AperFunction,ComponentPad*
%ADD10R,1.700000X1.700000*%
G04 #@! TD*
G04 #@! TA.AperFunction,ComponentPad*
%ADD11O,1.700000X1.700000*%
G04 #@! TD*
G04 #@! TA.AperFunction,ComponentPad*
%ADD12C,2.000000*%
G04 #@! TD*
G04 #@! TA.AperFunction,ComponentPad*
%ADD13C,1.524000*%
G04 #@! TD*
G04 #@! TA.AperFunction,ComponentPad*
%ADD14C,3.400000*%
G04 #@! TD*
G04 #@! TA.AperFunction,ComponentPad*
%ADD15C,2.500000*%
G04 #@! TD*
G04 #@! TA.AperFunction,Conductor*
%ADD16C,0.750000*%
G04 #@! TD*
G04 #@! TA.AperFunction,Conductor*
%ADD17C,0.254000*%
G04 #@! TD*
G04 #@! TA.AperFunction,NonConductor*
%ADD18C,0.254000*%
G04 #@! TD*
G04 APERTURE END LIST*
D10*
G04 #@! TO.P,J2,1*
G04 #@! TO.N,Net-(J2-Pad1)*
X112880000Y-37914614D03*
D11*
G04 #@! TO.P,J2,2*
G04 #@! TO.N,Net-(J2-Pad2)*
X115420000Y-37914614D03*
G04 #@! TO.P,J2,3*
G04 #@! TO.N,Earth*
X112880000Y-40454614D03*
G04 #@! TO.P,J2,4*
X115420000Y-40454614D03*
G04 #@! TO.P,J2,5*
G04 #@! TO.N,+5V*
X112880000Y-42994614D03*
G04 #@! TO.P,J2,6*
X115420000Y-42994614D03*
G04 #@! TO.P,J2,7*
G04 #@! TO.N,Net-(J2-Pad7)*
X112880000Y-45534614D03*
G04 #@! TO.P,J2,8*
G04 #@! TO.N,Net-(J2-Pad8)*
X115420000Y-45534614D03*
G04 #@! TO.P,J2,9*
G04 #@! TO.N,Net-(J2-Pad9)*
X112880000Y-48074614D03*
G04 #@! TO.P,J2,10*
G04 #@! TO.N,Net-(J2-Pad10)*
X115420000Y-48074614D03*
G04 #@! TO.P,J2,11*
G04 #@! TO.N,/MISO*
X112880000Y-50614614D03*
G04 #@! TO.P,J2,12*
G04 #@! TO.N,/MOSI*
X115420000Y-50614614D03*
G04 #@! TO.P,J2,13*
G04 #@! TO.N,Net-(J2-Pad13)*
X112880000Y-53154614D03*
G04 #@! TO.P,J2,14*
G04 #@! TO.N,Net-(J2-Pad14)*
X115420000Y-53154614D03*
G04 #@! TO.P,J2,15*
G04 #@! TO.N,/CS*
X112880000Y-55694614D03*
G04 #@! TO.P,J2,16*
G04 #@! TO.N,Net-(J2-Pad16)*
X115420000Y-55694614D03*
G04 #@! TO.P,J2,17*
G04 #@! TO.N,Net-(J2-Pad17)*
X112880000Y-58234614D03*
G04 #@! TO.P,J2,18*
G04 #@! TO.N,/CLK*
X115420000Y-58234614D03*
G04 #@! TO.P,J2,19*
G04 #@! TO.N,Net-(J2-Pad19)*
X112880000Y-60774614D03*
G04 #@! TO.P,J2,20*
G04 #@! TO.N,Net-(J2-Pad20)*
X115420000Y-60774614D03*
G04 #@! TD*
D12*
G04 #@! TO.P,J1,0*
G04 #@! TO.N,Earth*
X121270000Y-43512934D03*
X134730000Y-43512934D03*
D13*
G04 #@! TO.P,J1,3*
G04 #@! TO.N,/MOSI*
X127395480Y-49533274D03*
G04 #@! TO.P,J1,5*
G04 #@! TO.N,/CLK*
X129935480Y-49533274D03*
G04 #@! TO.P,J1,1*
G04 #@! TO.N,+5V*
X124855480Y-49533274D03*
G04 #@! TO.P,J1,6*
G04 #@! TO.N,/CS*
X131205480Y-46993274D03*
G04 #@! TO.P,J1,4*
G04 #@! TO.N,/MISO*
X128665480Y-46993274D03*
G04 #@! TO.P,J1,2*
G04 #@! TO.N,Earth*
X126125480Y-46993274D03*
D14*
G04 #@! TO.P,J1,0*
G04 #@! TO.N,N/C*
X122920000Y-40465474D03*
X133080000Y-40462934D03*
D15*
G04 #@! TO.N,Earth*
X134780000Y-37415474D03*
X121220000Y-37415474D03*
G04 #@! TD*
D16*
G04 #@! TO.N,/MOSI*
X116269999Y-51464613D02*
X115420000Y-50614614D01*
X125464141Y-51464613D02*
X116269999Y-51464613D01*
X127395480Y-49533274D02*
X125464141Y-51464613D01*
G04 #@! TO.N,+5V*
X124855480Y-49533274D02*
X119288660Y-49533274D01*
X119288660Y-49533274D02*
X117430000Y-47674614D01*
X117430000Y-45004614D02*
X115420000Y-42994614D01*
X117430000Y-47674614D02*
X117430000Y-45004614D01*
X115420000Y-42994614D02*
X112880000Y-42994614D01*
G04 #@! TO.N,/CLK*
X121234140Y-58234614D02*
X115420000Y-58234614D01*
X129935480Y-49533274D02*
X121234140Y-58234614D01*
G04 #@! TO.N,/MISO*
X128665480Y-46993274D02*
X128665480Y-40720094D01*
X128665480Y-40720094D02*
X123090000Y-35144614D01*
X123090000Y-35144614D02*
X111900000Y-35144614D01*
X111900000Y-35144614D02*
X110140000Y-36904614D01*
X110140000Y-47874614D02*
X112030001Y-49764615D01*
X110140000Y-36904614D02*
X110140000Y-47874614D01*
G04 #@! TO.N,/CS*
X131205480Y-48070904D02*
X132200000Y-49065424D01*
X131205480Y-46993274D02*
X131205480Y-48070904D01*
X132200000Y-49065424D02*
X132200000Y-49690000D01*
X132200000Y-49690000D02*
X119090000Y-62800000D01*
X119090000Y-62800000D02*
X112150000Y-62800000D01*
X112150000Y-62800000D02*
X110420000Y-61070000D01*
X110420000Y-61070000D02*
X110420000Y-56800000D01*
X111525386Y-55694614D02*
X112880000Y-55694614D01*
X110420000Y-56800000D02*
X111525386Y-55694614D01*
G04 #@! TD*
D17*
G04 #@! TO.N,Earth*
G36*
X136173001Y-36288103D02*
X136113320Y-36261759D01*
X134959605Y-37415474D01*
X136113320Y-38569189D01*
X136173001Y-38542845D01*
X136173001Y-42695679D01*
X136149387Y-42638670D01*
X135882532Y-42540007D01*
X134909605Y-43512934D01*
X135882532Y-44485861D01*
X136149387Y-44387198D01*
X136173001Y-44323637D01*
X136173000Y-63687614D01*
X119745138Y-63687614D01*
X119884497Y-63594497D01*
X119945979Y-63502483D01*
X132902486Y-50545977D01*
X132994497Y-50484497D01*
X133238061Y-50119979D01*
X133302000Y-49798534D01*
X133302000Y-49798532D01*
X133323588Y-49690000D01*
X133302000Y-49581468D01*
X133302000Y-49173956D01*
X133323588Y-49065424D01*
X133302000Y-48956890D01*
X133302000Y-48956889D01*
X133238061Y-48635445D01*
X132994497Y-48270927D01*
X132902486Y-48209447D01*
X132485944Y-47792905D01*
X132694480Y-47289454D01*
X132694480Y-46697094D01*
X132467793Y-46149823D01*
X132048931Y-45730961D01*
X131501660Y-45504274D01*
X130909300Y-45504274D01*
X130362029Y-45730961D01*
X129943167Y-46149823D01*
X129935480Y-46168381D01*
X129927793Y-46149823D01*
X129767480Y-45989510D01*
X129767480Y-44665466D01*
X133757073Y-44665466D01*
X133855736Y-44932321D01*
X134465461Y-45158842D01*
X135115460Y-45134790D01*
X135604264Y-44932321D01*
X135702927Y-44665466D01*
X134730000Y-43692539D01*
X133757073Y-44665466D01*
X129767480Y-44665466D01*
X129767480Y-40828623D01*
X129789068Y-40720093D01*
X129767480Y-40611563D01*
X129767480Y-40611559D01*
X129703541Y-40290115D01*
X129574989Y-40097724D01*
X129521457Y-40017607D01*
X129521455Y-40017605D01*
X129496445Y-39980174D01*
X130653000Y-39980174D01*
X130653000Y-40945694D01*
X131022489Y-41837719D01*
X131705215Y-42520445D01*
X132597240Y-42889934D01*
X133217265Y-42889934D01*
X133084092Y-43248395D01*
X133108144Y-43898394D01*
X133310613Y-44387198D01*
X133577468Y-44485861D01*
X134550395Y-43512934D01*
X134536253Y-43498792D01*
X134715858Y-43319187D01*
X134730000Y-43333329D01*
X135702927Y-42360402D01*
X135604264Y-42093547D01*
X135077415Y-41897815D01*
X135137511Y-41837719D01*
X135507000Y-40945694D01*
X135507000Y-39980174D01*
X135218726Y-39284219D01*
X135804467Y-39041597D01*
X135933715Y-38748794D01*
X134780000Y-37595079D01*
X134765858Y-37609222D01*
X134586253Y-37429617D01*
X134600395Y-37415474D01*
X133446680Y-36261759D01*
X133153877Y-36391007D01*
X132885612Y-37091280D01*
X132905750Y-37840909D01*
X132986532Y-38035934D01*
X132597240Y-38035934D01*
X131705215Y-38405423D01*
X131022489Y-39088149D01*
X130653000Y-39980174D01*
X129496445Y-39980174D01*
X129459977Y-39925597D01*
X129367969Y-39864119D01*
X125586003Y-36082154D01*
X133626285Y-36082154D01*
X134780000Y-37235869D01*
X135933715Y-36082154D01*
X135804467Y-35789351D01*
X135104194Y-35521086D01*
X134354565Y-35541224D01*
X133755533Y-35789351D01*
X133626285Y-36082154D01*
X125586003Y-36082154D01*
X123945979Y-34442131D01*
X123884497Y-34350117D01*
X123871771Y-34341614D01*
X136173001Y-34341614D01*
X136173001Y-36288103D01*
X136173001Y-36288103D01*
G37*
X136173001Y-36288103D02*
X136113320Y-36261759D01*
X134959605Y-37415474D01*
X136113320Y-38569189D01*
X136173001Y-38542845D01*
X136173001Y-42695679D01*
X136149387Y-42638670D01*
X135882532Y-42540007D01*
X134909605Y-43512934D01*
X135882532Y-44485861D01*
X136149387Y-44387198D01*
X136173001Y-44323637D01*
X136173000Y-63687614D01*
X119745138Y-63687614D01*
X119884497Y-63594497D01*
X119945979Y-63502483D01*
X132902486Y-50545977D01*
X132994497Y-50484497D01*
X133238061Y-50119979D01*
X133302000Y-49798534D01*
X133302000Y-49798532D01*
X133323588Y-49690000D01*
X133302000Y-49581468D01*
X133302000Y-49173956D01*
X133323588Y-49065424D01*
X133302000Y-48956890D01*
X133302000Y-48956889D01*
X133238061Y-48635445D01*
X132994497Y-48270927D01*
X132902486Y-48209447D01*
X132485944Y-47792905D01*
X132694480Y-47289454D01*
X132694480Y-46697094D01*
X132467793Y-46149823D01*
X132048931Y-45730961D01*
X131501660Y-45504274D01*
X130909300Y-45504274D01*
X130362029Y-45730961D01*
X129943167Y-46149823D01*
X129935480Y-46168381D01*
X129927793Y-46149823D01*
X129767480Y-45989510D01*
X129767480Y-44665466D01*
X133757073Y-44665466D01*
X133855736Y-44932321D01*
X134465461Y-45158842D01*
X135115460Y-45134790D01*
X135604264Y-44932321D01*
X135702927Y-44665466D01*
X134730000Y-43692539D01*
X133757073Y-44665466D01*
X129767480Y-44665466D01*
X129767480Y-40828623D01*
X129789068Y-40720093D01*
X129767480Y-40611563D01*
X129767480Y-40611559D01*
X129703541Y-40290115D01*
X129574989Y-40097724D01*
X129521457Y-40017607D01*
X129521455Y-40017605D01*
X129496445Y-39980174D01*
X130653000Y-39980174D01*
X130653000Y-40945694D01*
X131022489Y-41837719D01*
X131705215Y-42520445D01*
X132597240Y-42889934D01*
X133217265Y-42889934D01*
X133084092Y-43248395D01*
X133108144Y-43898394D01*
X133310613Y-44387198D01*
X133577468Y-44485861D01*
X134550395Y-43512934D01*
X134536253Y-43498792D01*
X134715858Y-43319187D01*
X134730000Y-43333329D01*
X135702927Y-42360402D01*
X135604264Y-42093547D01*
X135077415Y-41897815D01*
X135137511Y-41837719D01*
X135507000Y-40945694D01*
X135507000Y-39980174D01*
X135218726Y-39284219D01*
X135804467Y-39041597D01*
X135933715Y-38748794D01*
X134780000Y-37595079D01*
X134765858Y-37609222D01*
X134586253Y-37429617D01*
X134600395Y-37415474D01*
X133446680Y-36261759D01*
X133153877Y-36391007D01*
X132885612Y-37091280D01*
X132905750Y-37840909D01*
X132986532Y-38035934D01*
X132597240Y-38035934D01*
X131705215Y-38405423D01*
X131022489Y-39088149D01*
X130653000Y-39980174D01*
X129496445Y-39980174D01*
X129459977Y-39925597D01*
X129367969Y-39864119D01*
X125586003Y-36082154D01*
X133626285Y-36082154D01*
X134780000Y-37235869D01*
X135933715Y-36082154D01*
X135804467Y-35789351D01*
X135104194Y-35521086D01*
X134354565Y-35541224D01*
X133755533Y-35789351D01*
X133626285Y-36082154D01*
X125586003Y-36082154D01*
X123945979Y-34442131D01*
X123884497Y-34350117D01*
X123871771Y-34341614D01*
X136173001Y-34341614D01*
X136173001Y-36288103D01*
G36*
X119886678Y-36261760D02*
X119593877Y-36391007D01*
X119325612Y-37091280D01*
X119345750Y-37840909D01*
X119593877Y-38439941D01*
X119886680Y-38569189D01*
X121040395Y-37415474D01*
X121026253Y-37401332D01*
X121205858Y-37221727D01*
X121220000Y-37235869D01*
X121234143Y-37221727D01*
X121413748Y-37401332D01*
X121399605Y-37415474D01*
X121413748Y-37429617D01*
X121234143Y-37609222D01*
X121220000Y-37595079D01*
X120066285Y-38748794D01*
X120195533Y-39041597D01*
X120788700Y-39268831D01*
X120493000Y-39982714D01*
X120493000Y-40948234D01*
X120862489Y-41840259D01*
X120912281Y-41890051D01*
X120884540Y-41891078D01*
X120395736Y-42093547D01*
X120297073Y-42360402D01*
X121270000Y-43333329D01*
X121284143Y-43319187D01*
X121463748Y-43498792D01*
X121449605Y-43512934D01*
X122422532Y-44485861D01*
X122689387Y-44387198D01*
X122915908Y-43777473D01*
X122891856Y-43127474D01*
X122794516Y-42892474D01*
X123402760Y-42892474D01*
X124294785Y-42522985D01*
X124977511Y-41840259D01*
X125347000Y-40948234D01*
X125347000Y-39982714D01*
X124977511Y-39090689D01*
X124294785Y-38407963D01*
X123402760Y-38038474D01*
X122999920Y-38038474D01*
X123114388Y-37739668D01*
X123094250Y-36990039D01*
X122894342Y-36507418D01*
X127563481Y-41176559D01*
X127563480Y-45989510D01*
X127403167Y-46149823D01*
X127352262Y-46272718D01*
X127347877Y-46262131D01*
X127105693Y-46192666D01*
X126305085Y-46993274D01*
X127105693Y-47793882D01*
X127347877Y-47724417D01*
X127351935Y-47713041D01*
X127403167Y-47836725D01*
X127610716Y-48044274D01*
X127099300Y-48044274D01*
X126879693Y-48135238D01*
X126926088Y-47973487D01*
X126125480Y-47172879D01*
X125324872Y-47973487D01*
X125371267Y-48135238D01*
X125151660Y-48044274D01*
X124559300Y-48044274D01*
X124012029Y-48270961D01*
X123851716Y-48431274D01*
X119745123Y-48431274D01*
X118532000Y-47218152D01*
X118532000Y-46785576D01*
X124716336Y-46785576D01*
X124744118Y-47340642D01*
X124903083Y-47724417D01*
X125145267Y-47793882D01*
X125945875Y-46993274D01*
X125145267Y-46192666D01*
X124903083Y-46262131D01*
X124716336Y-46785576D01*
X118532000Y-46785576D01*
X118532000Y-46013061D01*
X125324872Y-46013061D01*
X126125480Y-46813669D01*
X126926088Y-46013061D01*
X126856623Y-45770877D01*
X126333178Y-45584130D01*
X125778112Y-45611912D01*
X125394337Y-45770877D01*
X125324872Y-46013061D01*
X118532000Y-46013061D01*
X118532000Y-45113143D01*
X118553588Y-45004613D01*
X118532000Y-44896083D01*
X118532000Y-44896079D01*
X118486129Y-44665466D01*
X120297073Y-44665466D01*
X120395736Y-44932321D01*
X121005461Y-45158842D01*
X121655460Y-45134790D01*
X122144264Y-44932321D01*
X122242927Y-44665466D01*
X121270000Y-43692539D01*
X120297073Y-44665466D01*
X118486129Y-44665466D01*
X118468061Y-44574635D01*
X118404905Y-44480115D01*
X118285977Y-44302127D01*
X118285975Y-44302125D01*
X118224497Y-44210117D01*
X118132489Y-44148639D01*
X117232245Y-43248395D01*
X119624092Y-43248395D01*
X119648144Y-43898394D01*
X119850613Y-44387198D01*
X120117468Y-44485861D01*
X121090395Y-43512934D01*
X120117468Y-42540007D01*
X119850613Y-42638670D01*
X119624092Y-43248395D01*
X117232245Y-43248395D01*
X117019694Y-43035845D01*
X117027895Y-42994614D01*
X116905501Y-42379299D01*
X116556953Y-41857661D01*
X116268768Y-41665102D01*
X116301358Y-41649797D01*
X116691645Y-41221538D01*
X116861476Y-40811504D01*
X116740155Y-40581614D01*
X115547000Y-40581614D01*
X115547000Y-40601614D01*
X115293000Y-40601614D01*
X115293000Y-40581614D01*
X113007000Y-40581614D01*
X113007000Y-40601614D01*
X112753000Y-40601614D01*
X112753000Y-40581614D01*
X111559845Y-40581614D01*
X111438524Y-40811504D01*
X111608355Y-41221538D01*
X111998642Y-41649797D01*
X112031232Y-41665102D01*
X111743047Y-41857661D01*
X111394499Y-42379299D01*
X111272105Y-42994614D01*
X111394499Y-43609929D01*
X111743047Y-44131567D01*
X111942166Y-44264614D01*
X111743047Y-44397661D01*
X111394499Y-44919299D01*
X111272105Y-45534614D01*
X111394499Y-46149929D01*
X111743047Y-46671567D01*
X111942166Y-46804614D01*
X111743047Y-46937661D01*
X111394499Y-47459299D01*
X111376025Y-47552176D01*
X111242000Y-47418152D01*
X111242000Y-37361076D01*
X111288758Y-37314318D01*
X111288758Y-38764614D01*
X111345182Y-39048275D01*
X111505863Y-39288751D01*
X111746339Y-39449432D01*
X111813342Y-39462760D01*
X111608355Y-39687690D01*
X111438524Y-40097724D01*
X111559845Y-40327614D01*
X112753000Y-40327614D01*
X112753000Y-40307614D01*
X113007000Y-40307614D01*
X113007000Y-40327614D01*
X115293000Y-40327614D01*
X115293000Y-40307614D01*
X115547000Y-40307614D01*
X115547000Y-40327614D01*
X116740155Y-40327614D01*
X116861476Y-40097724D01*
X116691645Y-39687690D01*
X116301358Y-39259431D01*
X116268768Y-39244126D01*
X116556953Y-39051567D01*
X116905501Y-38529929D01*
X117027895Y-37914614D01*
X116905501Y-37299299D01*
X116556953Y-36777661D01*
X116035315Y-36429113D01*
X115575319Y-36337614D01*
X115264681Y-36337614D01*
X114804685Y-36429113D01*
X114372625Y-36717807D01*
X114254137Y-36540477D01*
X114013661Y-36379796D01*
X113730000Y-36323372D01*
X112279705Y-36323372D01*
X112356463Y-36246614D01*
X119871532Y-36246614D01*
X119886678Y-36261760D01*
X119886678Y-36261760D01*
G37*
X119886678Y-36261760D02*
X119593877Y-36391007D01*
X119325612Y-37091280D01*
X119345750Y-37840909D01*
X119593877Y-38439941D01*
X119886680Y-38569189D01*
X121040395Y-37415474D01*
X121026253Y-37401332D01*
X121205858Y-37221727D01*
X121220000Y-37235869D01*
X121234143Y-37221727D01*
X121413748Y-37401332D01*
X121399605Y-37415474D01*
X121413748Y-37429617D01*
X121234143Y-37609222D01*
X121220000Y-37595079D01*
X120066285Y-38748794D01*
X120195533Y-39041597D01*
X120788700Y-39268831D01*
X120493000Y-39982714D01*
X120493000Y-40948234D01*
X120862489Y-41840259D01*
X120912281Y-41890051D01*
X120884540Y-41891078D01*
X120395736Y-42093547D01*
X120297073Y-42360402D01*
X121270000Y-43333329D01*
X121284143Y-43319187D01*
X121463748Y-43498792D01*
X121449605Y-43512934D01*
X122422532Y-44485861D01*
X122689387Y-44387198D01*
X122915908Y-43777473D01*
X122891856Y-43127474D01*
X122794516Y-42892474D01*
X123402760Y-42892474D01*
X124294785Y-42522985D01*
X124977511Y-41840259D01*
X125347000Y-40948234D01*
X125347000Y-39982714D01*
X124977511Y-39090689D01*
X124294785Y-38407963D01*
X123402760Y-38038474D01*
X122999920Y-38038474D01*
X123114388Y-37739668D01*
X123094250Y-36990039D01*
X122894342Y-36507418D01*
X127563481Y-41176559D01*
X127563480Y-45989510D01*
X127403167Y-46149823D01*
X127352262Y-46272718D01*
X127347877Y-46262131D01*
X127105693Y-46192666D01*
X126305085Y-46993274D01*
X127105693Y-47793882D01*
X127347877Y-47724417D01*
X127351935Y-47713041D01*
X127403167Y-47836725D01*
X127610716Y-48044274D01*
X127099300Y-48044274D01*
X126879693Y-48135238D01*
X126926088Y-47973487D01*
X126125480Y-47172879D01*
X125324872Y-47973487D01*
X125371267Y-48135238D01*
X125151660Y-48044274D01*
X124559300Y-48044274D01*
X124012029Y-48270961D01*
X123851716Y-48431274D01*
X119745123Y-48431274D01*
X118532000Y-47218152D01*
X118532000Y-46785576D01*
X124716336Y-46785576D01*
X124744118Y-47340642D01*
X124903083Y-47724417D01*
X125145267Y-47793882D01*
X125945875Y-46993274D01*
X125145267Y-46192666D01*
X124903083Y-46262131D01*
X124716336Y-46785576D01*
X118532000Y-46785576D01*
X118532000Y-46013061D01*
X125324872Y-46013061D01*
X126125480Y-46813669D01*
X126926088Y-46013061D01*
X126856623Y-45770877D01*
X126333178Y-45584130D01*
X125778112Y-45611912D01*
X125394337Y-45770877D01*
X125324872Y-46013061D01*
X118532000Y-46013061D01*
X118532000Y-45113143D01*
X118553588Y-45004613D01*
X118532000Y-44896083D01*
X118532000Y-44896079D01*
X118486129Y-44665466D01*
X120297073Y-44665466D01*
X120395736Y-44932321D01*
X121005461Y-45158842D01*
X121655460Y-45134790D01*
X122144264Y-44932321D01*
X122242927Y-44665466D01*
X121270000Y-43692539D01*
X120297073Y-44665466D01*
X118486129Y-44665466D01*
X118468061Y-44574635D01*
X118404905Y-44480115D01*
X118285977Y-44302127D01*
X118285975Y-44302125D01*
X118224497Y-44210117D01*
X118132489Y-44148639D01*
X117232245Y-43248395D01*
X119624092Y-43248395D01*
X119648144Y-43898394D01*
X119850613Y-44387198D01*
X120117468Y-44485861D01*
X121090395Y-43512934D01*
X120117468Y-42540007D01*
X119850613Y-42638670D01*
X119624092Y-43248395D01*
X117232245Y-43248395D01*
X117019694Y-43035845D01*
X117027895Y-42994614D01*
X116905501Y-42379299D01*
X116556953Y-41857661D01*
X116268768Y-41665102D01*
X116301358Y-41649797D01*
X116691645Y-41221538D01*
X116861476Y-40811504D01*
X116740155Y-40581614D01*
X115547000Y-40581614D01*
X115547000Y-40601614D01*
X115293000Y-40601614D01*
X115293000Y-40581614D01*
X113007000Y-40581614D01*
X113007000Y-40601614D01*
X112753000Y-40601614D01*
X112753000Y-40581614D01*
X111559845Y-40581614D01*
X111438524Y-40811504D01*
X111608355Y-41221538D01*
X111998642Y-41649797D01*
X112031232Y-41665102D01*
X111743047Y-41857661D01*
X111394499Y-42379299D01*
X111272105Y-42994614D01*
X111394499Y-43609929D01*
X111743047Y-44131567D01*
X111942166Y-44264614D01*
X111743047Y-44397661D01*
X111394499Y-44919299D01*
X111272105Y-45534614D01*
X111394499Y-46149929D01*
X111743047Y-46671567D01*
X111942166Y-46804614D01*
X111743047Y-46937661D01*
X111394499Y-47459299D01*
X111376025Y-47552176D01*
X111242000Y-47418152D01*
X111242000Y-37361076D01*
X111288758Y-37314318D01*
X111288758Y-38764614D01*
X111345182Y-39048275D01*
X111505863Y-39288751D01*
X111746339Y-39449432D01*
X111813342Y-39462760D01*
X111608355Y-39687690D01*
X111438524Y-40097724D01*
X111559845Y-40327614D01*
X112753000Y-40327614D01*
X112753000Y-40307614D01*
X113007000Y-40307614D01*
X113007000Y-40327614D01*
X115293000Y-40327614D01*
X115293000Y-40307614D01*
X115547000Y-40307614D01*
X115547000Y-40327614D01*
X116740155Y-40327614D01*
X116861476Y-40097724D01*
X116691645Y-39687690D01*
X116301358Y-39259431D01*
X116268768Y-39244126D01*
X116556953Y-39051567D01*
X116905501Y-38529929D01*
X117027895Y-37914614D01*
X116905501Y-37299299D01*
X116556953Y-36777661D01*
X116035315Y-36429113D01*
X115575319Y-36337614D01*
X115264681Y-36337614D01*
X114804685Y-36429113D01*
X114372625Y-36717807D01*
X114254137Y-36540477D01*
X114013661Y-36379796D01*
X113730000Y-36323372D01*
X112279705Y-36323372D01*
X112356463Y-36246614D01*
X119871532Y-36246614D01*
X119886678Y-36261760D01*
D18*
G36*
X120777678Y-57132614D02*
X116580308Y-57132614D01*
X116556953Y-57097661D01*
X116357834Y-56964614D01*
X116556953Y-56831567D01*
X116905501Y-56309929D01*
X117027895Y-55694614D01*
X116905501Y-55079299D01*
X116556953Y-54557661D01*
X116357834Y-54424614D01*
X116556953Y-54291567D01*
X116905501Y-53769929D01*
X117027895Y-53154614D01*
X116910934Y-52566613D01*
X125343678Y-52566613D01*
X120777678Y-57132614D01*
X120777678Y-57132614D01*
G37*
X120777678Y-57132614D02*
X116580308Y-57132614D01*
X116556953Y-57097661D01*
X116357834Y-56964614D01*
X116556953Y-56831567D01*
X116905501Y-56309929D01*
X117027895Y-55694614D01*
X116905501Y-55079299D01*
X116556953Y-54557661D01*
X116357834Y-54424614D01*
X116556953Y-54291567D01*
X116905501Y-53769929D01*
X117027895Y-53154614D01*
X116910934Y-52566613D01*
X125343678Y-52566613D01*
X120777678Y-57132614D01*
G36*
X118633538Y-61698000D02*
X116699654Y-61698000D01*
X116905501Y-61389929D01*
X117027895Y-60774614D01*
X116905501Y-60159299D01*
X116556953Y-59637661D01*
X116357834Y-59504614D01*
X116556953Y-59371567D01*
X116580308Y-59336614D01*
X120994924Y-59336614D01*
X118633538Y-61698000D01*
X118633538Y-61698000D01*
G37*
X118633538Y-61698000D02*
X116699654Y-61698000D01*
X116905501Y-61389929D01*
X117027895Y-60774614D01*
X116905501Y-60159299D01*
X116556953Y-59637661D01*
X116357834Y-59504614D01*
X116556953Y-59371567D01*
X116580308Y-59336614D01*
X120994924Y-59336614D01*
X118633538Y-61698000D01*
G36*
X111105503Y-34350117D02*
X111044023Y-34442128D01*
X109437517Y-36048635D01*
X109345503Y-36110117D01*
X109101939Y-36474636D01*
X109038000Y-36796080D01*
X109038000Y-36796083D01*
X109016412Y-36904614D01*
X109038000Y-37013145D01*
X109038001Y-47766078D01*
X109016412Y-47874614D01*
X109101939Y-48304592D01*
X109276882Y-48566412D01*
X109345504Y-48669111D01*
X109437515Y-48730591D01*
X111270567Y-50563644D01*
X111273011Y-50751651D01*
X111273070Y-50754215D01*
X111341245Y-52807027D01*
X111272105Y-53154614D01*
X111368959Y-53641530D01*
X111400652Y-54595836D01*
X111095407Y-54656553D01*
X110730889Y-54900117D01*
X110669409Y-54992128D01*
X109717515Y-55944023D01*
X109625504Y-56005503D01*
X109564024Y-56097514D01*
X109564023Y-56097515D01*
X109381939Y-56370022D01*
X109296412Y-56800000D01*
X109318001Y-56908536D01*
X109318000Y-60961468D01*
X109296412Y-61070000D01*
X109318000Y-61178531D01*
X109318000Y-61178534D01*
X109381939Y-61499978D01*
X109625503Y-61864497D01*
X109717517Y-61925979D01*
X111294025Y-63502489D01*
X111355503Y-63594497D01*
X111447511Y-63655975D01*
X111447513Y-63655977D01*
X111494861Y-63687614D01*
X108827000Y-63687614D01*
X108827000Y-34341614D01*
X111118229Y-34341614D01*
X111105503Y-34350117D01*
X111105503Y-34350117D01*
G37*
X111105503Y-34350117D02*
X111044023Y-34442128D01*
X109437517Y-36048635D01*
X109345503Y-36110117D01*
X109101939Y-36474636D01*
X109038000Y-36796080D01*
X109038000Y-36796083D01*
X109016412Y-36904614D01*
X109038000Y-37013145D01*
X109038001Y-47766078D01*
X109016412Y-47874614D01*
X109101939Y-48304592D01*
X109276882Y-48566412D01*
X109345504Y-48669111D01*
X109437515Y-48730591D01*
X111270567Y-50563644D01*
X111273011Y-50751651D01*
X111273070Y-50754215D01*
X111341245Y-52807027D01*
X111272105Y-53154614D01*
X111368959Y-53641530D01*
X111400652Y-54595836D01*
X111095407Y-54656553D01*
X110730889Y-54900117D01*
X110669409Y-54992128D01*
X109717515Y-55944023D01*
X109625504Y-56005503D01*
X109564024Y-56097514D01*
X109564023Y-56097515D01*
X109381939Y-56370022D01*
X109296412Y-56800000D01*
X109318001Y-56908536D01*
X109318000Y-60961468D01*
X109296412Y-61070000D01*
X109318000Y-61178531D01*
X109318000Y-61178534D01*
X109381939Y-61499978D01*
X109625503Y-61864497D01*
X109717517Y-61925979D01*
X111294025Y-63502489D01*
X111355503Y-63594497D01*
X111447511Y-63655975D01*
X111447513Y-63655977D01*
X111494861Y-63687614D01*
X108827000Y-63687614D01*
X108827000Y-34341614D01*
X111118229Y-34341614D01*
X111105503Y-34350117D01*
G36*
X111549642Y-59082117D02*
X111576376Y-59887101D01*
X111522000Y-59968481D01*
X111522000Y-59040747D01*
X111549642Y-59082117D01*
X111549642Y-59082117D01*
G37*
X111549642Y-59082117D02*
X111576376Y-59887101D01*
X111522000Y-59968481D01*
X111522000Y-59040747D01*
X111549642Y-59082117D01*
G36*
X111288758Y-37700349D02*
X111242000Y-37893083D01*
X111242000Y-37361076D01*
X111288758Y-37314318D01*
X111288758Y-37700349D01*
X111288758Y-37700349D01*
G37*
X111288758Y-37700349D02*
X111242000Y-37893083D01*
X111242000Y-37361076D01*
X111288758Y-37314318D01*
X111288758Y-37700349D01*
G04 #@! TD*
M02*
