M48
;DRILL file {KiCad 5.0.2-bee76a0~70~ubuntu18.04.1} date qua 29 jan 2020 09:53:01 -03
;FORMAT={-:-/ absolute / metric / decimal}
FMAT,2
METRIC,TZ
T1C0.813
T2C1.000
T3C1.500
T4C1.600
T5C3.400
%
G90
G05
T1
X124.855Y-49.533
X126.125Y-46.993
X127.395Y-49.533
X128.665Y-46.993
X129.935Y-49.533
X131.205Y-46.993
T2
X112.88Y-37.915
X112.88Y-40.455
X112.88Y-42.995
X112.88Y-45.535
X112.88Y-48.075
X112.88Y-50.615
X112.88Y-53.155
X112.88Y-55.695
X112.88Y-58.235
X112.88Y-60.775
X115.42Y-37.915
X115.42Y-40.455
X115.42Y-42.995
X115.42Y-45.535
X115.42Y-48.075
X115.42Y-50.615
X115.42Y-53.155
X115.42Y-55.695
X115.42Y-58.235
X115.42Y-60.775
T3
X121.27Y-43.513
X134.73Y-43.513
T4
X121.22Y-37.415
X134.78Y-37.415
T5
X122.92Y-40.465
X133.08Y-40.463
T0
M30
