G04 #@! TF.GenerationSoftware,KiCad,Pcbnew,5.0.2-bee76a0~70~ubuntu18.04.1*
G04 #@! TF.CreationDate,2020-03-06T11:48:55-03:00*
G04 #@! TF.ProjectId,lm35racks,6c6d3335-7261-4636-9b73-2e6b69636164,v0.3*
G04 #@! TF.SameCoordinates,Original*
G04 #@! TF.FileFunction,Profile,NP*
%FSLAX46Y46*%
G04 Gerber Fmt 4.6, Leading zero omitted, Abs format (unit mm)*
G04 Created by KiCad (PCBNEW 5.0.2-bee76a0~70~ubuntu18.04.1) date sex 06 mar 2020 11:48:55 -03*
%MOMM*%
%LPD*%
G01*
G04 APERTURE LIST*
%ADD10C,0.200000*%
%ADD11C,0.150000*%
G04 APERTURE END LIST*
D10*
X63170000Y-76660000D02*
X63170000Y-77610000D01*
X65570000Y-77610000D02*
X65570000Y-76660000D01*
X65570000Y-76660000D02*
X63170000Y-76660000D01*
X63170000Y-77610000D02*
X65570000Y-77610000D01*
X65620000Y-88410000D02*
X65620000Y-87460000D01*
X63220000Y-87460000D02*
X63220000Y-88410000D01*
X63220000Y-88410000D02*
X65620000Y-88410000D01*
X65620000Y-87460000D02*
X63220000Y-87460000D01*
X78806247Y-59420000D02*
G75*
G03X78806247Y-59420000I-2596247J0D01*
G01*
X65620000Y-102690000D02*
X63220000Y-102690000D01*
X63220000Y-103640000D02*
X65620000Y-103640000D01*
X63220000Y-102690000D02*
X63220000Y-103640000D01*
X65620000Y-103640000D02*
X65620000Y-102690000D01*
X65620000Y-117940000D02*
X63220000Y-117940000D01*
X63220000Y-118890000D02*
X65620000Y-118890000D01*
X63220000Y-117940000D02*
X63220000Y-118890000D01*
X65620000Y-118890000D02*
X65620000Y-117940000D01*
X65620000Y-91940000D02*
X63220000Y-91940000D01*
X63220000Y-92890000D02*
X65620000Y-92890000D01*
X63220000Y-91940000D02*
X63220000Y-92890000D01*
X65620000Y-92890000D02*
X65620000Y-91940000D01*
X63170000Y-108090000D02*
X65570000Y-108090000D01*
X65570000Y-107140000D02*
X63170000Y-107140000D01*
X65570000Y-108090000D02*
X65570000Y-107140000D01*
X63170000Y-107140000D02*
X63170000Y-108090000D01*
X143510000Y-105410000D02*
X138430000Y-105410000D01*
X143510000Y-107950000D02*
X143510000Y-105410000D01*
X138430000Y-107950000D02*
X143510000Y-107950000D01*
X138430000Y-105410000D02*
X138430000Y-107950000D01*
X143510000Y-90170000D02*
X138430000Y-90170000D01*
X143510000Y-92710000D02*
X143510000Y-90170000D01*
X138430000Y-92710000D02*
X143510000Y-92710000D01*
X138430000Y-90170000D02*
X138430000Y-92710000D01*
X185500000Y-26000000D02*
X185500000Y-125950000D01*
D11*
X59507240Y-25990840D02*
X185507240Y-25990840D01*
X59497240Y-125970840D02*
X59497240Y-25970840D01*
X185500000Y-125970840D02*
X59497240Y-125970840D01*
M02*
