M48
;DRILL file {KiCad 5.0.2-bee76a0~70~ubuntu18.04.1} date sex 06 mar 2020 11:48:57 -03
;FORMAT={-:-/ absolute / metric / decimal}
FMAT,2
METRIC,TZ
T1C0.600
T2C0.800
T3C0.813
T4C1.000
T5C1.500
T6C5.000
%
G90
G05
T1
X83.25Y-86.36
X89.609Y-52.239
X89.609Y-88.9
X91.35Y-58.81
X91.35Y-88.9
X92.92Y-88.9
X94.45Y-88.9
X96.12Y-77.17
X100.05Y-111.27
X100.78Y-40.65
X100.78Y-42.08
X100.78Y-43.91
X107.29Y-97.18
X114.3Y-59.69
X114.3Y-95.25
X117.5Y-65.73
X119.73Y-56.42
X119.94Y-59.72
X122.88Y-63.45
X125.73Y-78.22
X128.48Y-103.79
X132.17Y-47.16
X134.62Y-52.59
X135.6Y-35.3
X138.34Y-36.24
X139.93Y-74.58
X147.453Y-48.727
X149.62Y-70.09
T2
X75.32Y-68.42
X76.52Y-87.59
X130.82Y-88.48
X133.35Y-88.02
X64.21Y-111.5
X64.21Y-113.54
X66.76Y-112.52
X66.76Y-114.56
X142.24Y-34.29
X144.78Y-34.29
X147.32Y-34.29
X64.21Y-81.02
X64.21Y-83.06
X66.76Y-82.04
X66.76Y-84.08
X64.21Y-96.26
X64.21Y-98.3
X66.76Y-97.28
X66.76Y-99.32
T3
X87.069Y-97.275
X87.069Y-99.815
X87.069Y-102.355
X89.609Y-98.545
X89.609Y-101.085
X89.609Y-103.625
T4
X111.88Y-104.14
X119.38Y-96.64
X119.38Y-111.64
X146.05Y-54.61
X146.05Y-57.15
X146.05Y-59.69
X146.05Y-68.58
X146.05Y-71.12
X146.05Y-73.66
X73.59Y-116.28
X76.13Y-116.28
X78.67Y-116.28
X81.21Y-116.28
X88.646Y-35.56
X88.646Y-38.1
X91.186Y-35.56
X91.186Y-38.1
X93.726Y-35.56
X93.726Y-38.1
X96.266Y-35.56
X96.266Y-38.1
X97.79Y-81.28
X97.79Y-83.82
X98.806Y-35.56
X98.806Y-38.1
X100.33Y-81.28
X100.33Y-83.82
X101.346Y-35.56
X101.346Y-38.1
X102.87Y-81.28
X102.87Y-83.82
X103.886Y-35.56
X103.886Y-38.1
X105.41Y-81.28
X105.41Y-83.82
X106.426Y-35.56
X106.426Y-38.1
X107.95Y-81.28
X107.95Y-83.82
X108.966Y-35.56
X108.966Y-38.1
X110.49Y-81.28
X110.49Y-83.82
X111.506Y-35.56
X111.506Y-38.1
X113.03Y-81.28
X113.03Y-83.82
X115.57Y-35.56
X115.57Y-38.1
X115.57Y-81.28
X115.57Y-83.82
X118.11Y-35.56
X118.11Y-38.1
X120.65Y-35.56
X120.65Y-38.1
X120.65Y-81.28
X120.65Y-83.82
X123.19Y-35.56
X123.19Y-38.1
X123.19Y-81.28
X123.19Y-83.82
X125.73Y-35.56
X125.73Y-38.1
X125.73Y-81.28
X125.73Y-83.82
X128.27Y-35.56
X128.27Y-38.1
X128.27Y-81.28
X128.27Y-83.82
X130.81Y-35.56
X130.81Y-38.1
X130.81Y-81.28
X130.81Y-83.82
X133.35Y-35.56
X133.35Y-38.1
X133.35Y-81.28
X133.35Y-83.82
T5
X131.445Y-111.8
X131.445Y-116.8
X180.34Y-46.79
X180.34Y-51.79
X180.34Y-110.53
X180.34Y-115.53
X63.5Y-35.6
X63.5Y-40.6
X63.5Y-63.54
X63.5Y-68.54
X63.5Y-49.57
X63.5Y-54.57
X180.34Y-35.36
X180.34Y-40.36
T6
X167.64Y-65.36
X167.64Y-107.36
T4
X63.71Y-107.65G85X65.11Y-107.65
G05
X63.71Y-118.41G85X65.11Y-118.41
G05
X63.71Y-77.17G85X65.11Y-77.17
G05
X63.71Y-87.93G85X65.11Y-87.93
G05
X63.71Y-92.41G85X65.11Y-92.41
G05
X63.71Y-103.17G85X65.11Y-103.17
G05
T0
M30
